<mxfile host="app.diagrams.net" modified="2023-04-17T08:02:04.139Z" agent="Mozilla/5.0 (Macintosh; Intel Mac OS X 10_15_7) AppleWebKit/537.36 (KHTML, like Gecko) Chrome/112.0.0.0 Safari/537.36" etag="uojujIpjl1_GfiICH_cW" version="21.1.5" type="device">
  <diagram id="hnhfJZ9avkDLxNuhHS9K" name="第 1 页">
    <mxGraphModel dx="1725" dy="1234" grid="1" gridSize="10" guides="1" tooltips="1" connect="1" arrows="1" fold="1" page="1" pageScale="1" pageWidth="1169" pageHeight="827" math="0" shadow="0">
      <root>
        <mxCell id="0" />
        <mxCell id="1" parent="0" />
        <mxCell id="CEy5MRwPspwMGe2h-Den-34" style="edgeStyle=orthogonalEdgeStyle;rounded=0;orthogonalLoop=1;jettySize=auto;html=1;entryX=0.25;entryY=0.335;entryDx=0;entryDy=0;entryPerimeter=0;endArrow=none;endFill=0;exitX=1;exitY=0.25;exitDx=0;exitDy=0;" parent="1" source="CEy5MRwPspwMGe2h-Den-1" target="CEy5MRwPspwMGe2h-Den-2" edge="1">
          <mxGeometry relative="1" as="geometry">
            <mxPoint x="887" y="260" as="sourcePoint" />
          </mxGeometry>
        </mxCell>
        <mxCell id="CEy5MRwPspwMGe2h-Den-116" value="进行关注" style="edgeLabel;html=1;align=center;verticalAlign=middle;resizable=0;points=[];" parent="CEy5MRwPspwMGe2h-Den-34" vertex="1" connectable="0">
          <mxGeometry x="-0.3764" y="2" relative="1" as="geometry">
            <mxPoint x="13" y="-1" as="offset" />
          </mxGeometry>
        </mxCell>
        <mxCell id="CEy5MRwPspwMGe2h-Den-57" style="edgeStyle=orthogonalEdgeStyle;rounded=0;orthogonalLoop=1;jettySize=auto;html=1;exitX=0;exitY=0.75;exitDx=0;exitDy=0;entryX=0.5;entryY=0;entryDx=0;entryDy=0;endArrow=none;endFill=0;" parent="1" source="CEy5MRwPspwMGe2h-Den-1" target="CEy5MRwPspwMGe2h-Den-18" edge="1">
          <mxGeometry relative="1" as="geometry" />
        </mxCell>
        <mxCell id="CEy5MRwPspwMGe2h-Den-177" style="edgeStyle=orthogonalEdgeStyle;rounded=0;orthogonalLoop=1;jettySize=auto;html=1;entryX=1;entryY=0.5;entryDx=0;entryDy=0;endArrow=none;endFill=0;" parent="1" target="CEy5MRwPspwMGe2h-Den-176" edge="1">
          <mxGeometry relative="1" as="geometry">
            <mxPoint x="300" y="291" as="sourcePoint" />
            <Array as="points">
              <mxPoint x="300" y="440" />
              <mxPoint x="590" y="440" />
              <mxPoint x="590" y="620" />
            </Array>
          </mxGeometry>
        </mxCell>
        <mxCell id="CEy5MRwPspwMGe2h-Den-1" value="用户" style="whiteSpace=wrap;html=1;align=center;" parent="1" vertex="1">
          <mxGeometry x="280" y="250" width="100" height="40" as="geometry" />
        </mxCell>
        <mxCell id="CEy5MRwPspwMGe2h-Den-114" style="edgeStyle=orthogonalEdgeStyle;rounded=0;orthogonalLoop=1;jettySize=auto;html=1;exitX=0.145;exitY=0.674;exitDx=0;exitDy=0;exitPerimeter=0;entryX=1;entryY=0.75;entryDx=0;entryDy=0;" parent="1" source="CEy5MRwPspwMGe2h-Den-2" target="CEy5MRwPspwMGe2h-Den-1" edge="1">
          <mxGeometry relative="1" as="geometry">
            <mxPoint x="887" y="280" as="targetPoint" />
          </mxGeometry>
        </mxCell>
        <mxCell id="CEy5MRwPspwMGe2h-Den-115" value="被关注" style="edgeLabel;html=1;align=center;verticalAlign=middle;resizable=0;points=[];" parent="CEy5MRwPspwMGe2h-Den-114" vertex="1" connectable="0">
          <mxGeometry x="0.1014" y="-2" relative="1" as="geometry">
            <mxPoint x="1" as="offset" />
          </mxGeometry>
        </mxCell>
        <mxCell id="CEy5MRwPspwMGe2h-Den-157" style="edgeStyle=orthogonalEdgeStyle;rounded=0;orthogonalLoop=1;jettySize=auto;html=1;entryX=1;entryY=0.25;entryDx=0;entryDy=0;jumpStyle=arc;endArrow=none;endFill=0;exitX=0.5;exitY=1;exitDx=0;exitDy=0;" parent="1" source="CEy5MRwPspwMGe2h-Den-2" target="CEy5MRwPspwMGe2h-Den-28" edge="1">
          <mxGeometry relative="1" as="geometry">
            <Array as="points">
              <mxPoint x="1006" y="660" />
            </Array>
          </mxGeometry>
        </mxCell>
        <mxCell id="CEy5MRwPspwMGe2h-Den-197" style="edgeStyle=orthogonalEdgeStyle;rounded=0;orthogonalLoop=1;jettySize=auto;html=1;entryX=1;entryY=0.5;entryDx=0;entryDy=0;endArrow=none;endFill=0;exitX=0.324;exitY=0.822;exitDx=0;exitDy=0;exitPerimeter=0;" parent="1" target="CEy5MRwPspwMGe2h-Den-196" edge="1">
          <mxGeometry relative="1" as="geometry">
            <Array as="points">
              <mxPoint x="985" y="289" />
              <mxPoint x="985" y="289" />
              <mxPoint x="985" y="340" />
            </Array>
            <mxPoint x="985.3800000000001" y="287.31999999999994" as="sourcePoint" />
            <mxPoint x="972.3209634501904" y="323.8441274888339" as="targetPoint" />
          </mxGeometry>
        </mxCell>
        <mxCell id="CEy5MRwPspwMGe2h-Den-2" value="关注" style="shape=rhombus;perimeter=rhombusPerimeter;whiteSpace=wrap;html=1;align=center;" parent="1" vertex="1">
          <mxGeometry x="946.5" y="240" width="120" height="60" as="geometry" />
        </mxCell>
        <mxCell id="CEy5MRwPspwMGe2h-Den-53" style="edgeStyle=orthogonalEdgeStyle;rounded=0;orthogonalLoop=1;jettySize=auto;html=1;entryX=0.5;entryY=0;entryDx=0;entryDy=0;" parent="1" source="CEy5MRwPspwMGe2h-Den-3" target="CEy5MRwPspwMGe2h-Den-1" edge="1">
          <mxGeometry relative="1" as="geometry">
            <Array as="points">
              <mxPoint x="200" y="210" />
              <mxPoint x="330" y="210" />
            </Array>
          </mxGeometry>
        </mxCell>
        <mxCell id="CEy5MRwPspwMGe2h-Den-3" value="发送" style="shape=rhombus;perimeter=rhombusPerimeter;whiteSpace=wrap;html=1;align=center;" parent="1" vertex="1">
          <mxGeometry x="140" y="130" width="120" height="60" as="geometry" />
        </mxCell>
        <mxCell id="CEy5MRwPspwMGe2h-Den-52" style="edgeStyle=orthogonalEdgeStyle;rounded=0;orthogonalLoop=1;jettySize=auto;html=1;exitX=0.5;exitY=1;exitDx=0;exitDy=0;entryX=0.25;entryY=0;entryDx=0;entryDy=0;" parent="1" source="CEy5MRwPspwMGe2h-Den-4" target="CEy5MRwPspwMGe2h-Den-1" edge="1">
          <mxGeometry relative="1" as="geometry">
            <Array as="points">
              <mxPoint x="71" y="230" />
              <mxPoint x="305" y="230" />
            </Array>
          </mxGeometry>
        </mxCell>
        <mxCell id="CEy5MRwPspwMGe2h-Den-4" value="收到" style="shape=rhombus;perimeter=rhombusPerimeter;whiteSpace=wrap;html=1;align=center;" parent="1" vertex="1">
          <mxGeometry x="10" y="130" width="120" height="60" as="geometry" />
        </mxCell>
        <mxCell id="CEy5MRwPspwMGe2h-Den-54" style="edgeStyle=orthogonalEdgeStyle;rounded=0;orthogonalLoop=1;jettySize=auto;html=1;exitX=0.25;exitY=1;exitDx=0;exitDy=0;entryX=1;entryY=0;entryDx=0;entryDy=0;endArrow=none;endFill=0;" parent="1" source="CEy5MRwPspwMGe2h-Den-5" target="CEy5MRwPspwMGe2h-Den-4" edge="1">
          <mxGeometry relative="1" as="geometry">
            <Array as="points">
              <mxPoint x="100" y="70" />
            </Array>
          </mxGeometry>
        </mxCell>
        <mxCell id="CEy5MRwPspwMGe2h-Den-55" style="edgeStyle=orthogonalEdgeStyle;rounded=0;orthogonalLoop=1;jettySize=auto;html=1;exitX=0.853;exitY=0.983;exitDx=0;exitDy=0;entryX=0;entryY=0;entryDx=0;entryDy=0;endArrow=none;endFill=0;exitPerimeter=0;" parent="1" source="CEy5MRwPspwMGe2h-Den-5" target="CEy5MRwPspwMGe2h-Den-3" edge="1">
          <mxGeometry relative="1" as="geometry">
            <Array as="points">
              <mxPoint x="170" y="69" />
            </Array>
          </mxGeometry>
        </mxCell>
        <mxCell id="CEy5MRwPspwMGe2h-Den-122" style="edgeStyle=orthogonalEdgeStyle;rounded=0;orthogonalLoop=1;jettySize=auto;html=1;endArrow=none;endFill=0;" parent="1" target="CEy5MRwPspwMGe2h-Den-119" edge="1">
          <mxGeometry relative="1" as="geometry">
            <mxPoint x="70" y="50" as="sourcePoint" />
          </mxGeometry>
        </mxCell>
        <mxCell id="CEy5MRwPspwMGe2h-Den-124" style="edgeStyle=orthogonalEdgeStyle;rounded=0;orthogonalLoop=1;jettySize=auto;html=1;entryX=1;entryY=0.5;entryDx=0;entryDy=0;endArrow=none;endFill=0;exitX=0;exitY=0.5;exitDx=0;exitDy=0;" parent="1" source="CEy5MRwPspwMGe2h-Den-5" target="CEy5MRwPspwMGe2h-Den-117" edge="1">
          <mxGeometry relative="1" as="geometry">
            <mxPoint x="79" y="88.67" as="sourcePoint" />
            <Array as="points">
              <mxPoint x="50" y="50" />
              <mxPoint x="50" y="100" />
              <mxPoint x="20" y="100" />
            </Array>
          </mxGeometry>
        </mxCell>
        <mxCell id="CEy5MRwPspwMGe2h-Den-127" style="edgeStyle=orthogonalEdgeStyle;rounded=0;orthogonalLoop=1;jettySize=auto;html=1;entryX=1;entryY=0.5;entryDx=0;entryDy=0;endArrow=none;endFill=0;exitX=0;exitY=0.5;exitDx=0;exitDy=0;" parent="1" source="CEy5MRwPspwMGe2h-Den-5" target="CEy5MRwPspwMGe2h-Den-118" edge="1">
          <mxGeometry relative="1" as="geometry">
            <mxPoint x="79" y="88.67" as="sourcePoint" />
            <Array as="points">
              <mxPoint x="50" y="50" />
              <mxPoint x="50" />
              <mxPoint x="20" />
            </Array>
          </mxGeometry>
        </mxCell>
        <mxCell id="CEy5MRwPspwMGe2h-Den-5" value="私信" style="whiteSpace=wrap;html=1;align=center;" parent="1" vertex="1">
          <mxGeometry x="80" y="30" width="100" height="40" as="geometry" />
        </mxCell>
        <mxCell id="CEy5MRwPspwMGe2h-Den-44" style="edgeStyle=orthogonalEdgeStyle;rounded=0;orthogonalLoop=1;jettySize=auto;html=1;exitX=0.5;exitY=0;exitDx=0;exitDy=0;endArrow=none;endFill=0;entryX=0.5;entryY=1;entryDx=0;entryDy=0;" parent="1" source="CEy5MRwPspwMGe2h-Den-6" target="CEy5MRwPspwMGe2h-Den-7" edge="1">
          <mxGeometry relative="1" as="geometry">
            <mxPoint x="370" y="80" as="targetPoint" />
            <Array as="points" />
          </mxGeometry>
        </mxCell>
        <mxCell id="CEy5MRwPspwMGe2h-Den-106" style="edgeStyle=orthogonalEdgeStyle;rounded=0;orthogonalLoop=1;jettySize=auto;html=1;" parent="1" source="CEy5MRwPspwMGe2h-Den-6" edge="1">
          <mxGeometry relative="1" as="geometry">
            <mxPoint x="370" y="250" as="targetPoint" />
            <Array as="points">
              <mxPoint x="370" y="250" />
            </Array>
          </mxGeometry>
        </mxCell>
        <mxCell id="CEy5MRwPspwMGe2h-Den-107" style="edgeStyle=orthogonalEdgeStyle;rounded=0;orthogonalLoop=1;jettySize=auto;html=1;exitX=1;exitY=0.5;exitDx=0;exitDy=0;entryX=0;entryY=0.5;entryDx=0;entryDy=0;endArrow=none;endFill=0;" parent="1" source="CEy5MRwPspwMGe2h-Den-6" edge="1">
          <mxGeometry relative="1" as="geometry">
            <mxPoint x="460" y="140" as="targetPoint" />
          </mxGeometry>
        </mxCell>
        <mxCell id="CEy5MRwPspwMGe2h-Den-6" value="发布动态" style="shape=rhombus;perimeter=rhombusPerimeter;whiteSpace=wrap;html=1;align=center;" parent="1" vertex="1">
          <mxGeometry x="310" y="109.99999999999999" width="120" height="60" as="geometry" />
        </mxCell>
        <mxCell id="CEy5MRwPspwMGe2h-Den-110" style="edgeStyle=orthogonalEdgeStyle;rounded=0;orthogonalLoop=1;jettySize=auto;html=1;exitX=0.5;exitY=0;exitDx=0;exitDy=0;entryX=0.5;entryY=1;entryDx=0;entryDy=0;endArrow=none;endFill=0;" parent="1" source="CEy5MRwPspwMGe2h-Den-7" target="CEy5MRwPspwMGe2h-Den-105" edge="1">
          <mxGeometry relative="1" as="geometry">
            <mxPoint x="340" y="55" as="sourcePoint" />
            <mxPoint x="440" y="-20" as="targetPoint" />
            <Array as="points">
              <mxPoint x="370" y="-10" />
              <mxPoint x="470" y="-10" />
            </Array>
          </mxGeometry>
        </mxCell>
        <mxCell id="CEy5MRwPspwMGe2h-Den-111" style="edgeStyle=orthogonalEdgeStyle;rounded=0;orthogonalLoop=1;jettySize=auto;html=1;entryX=0.5;entryY=1;entryDx=0;entryDy=0;endArrow=none;endFill=0;exitX=0.5;exitY=0;exitDx=0;exitDy=0;" parent="1" target="CEy5MRwPspwMGe2h-Den-108" edge="1">
          <mxGeometry relative="1" as="geometry">
            <mxPoint x="370" y="45" as="sourcePoint" />
            <mxPoint x="340" y="-15" as="targetPoint" />
            <Array as="points">
              <mxPoint x="370" />
              <mxPoint x="370" />
            </Array>
          </mxGeometry>
        </mxCell>
        <mxCell id="CEy5MRwPspwMGe2h-Den-113" style="edgeStyle=orthogonalEdgeStyle;rounded=0;orthogonalLoop=1;jettySize=auto;html=1;exitX=0.5;exitY=0;exitDx=0;exitDy=0;endArrow=none;endFill=0;entryX=0.5;entryY=1;entryDx=0;entryDy=0;" parent="1" source="CEy5MRwPspwMGe2h-Den-7" target="CEy5MRwPspwMGe2h-Den-103" edge="1">
          <mxGeometry relative="1" as="geometry">
            <mxPoint x="400" y="95" as="sourcePoint" />
            <mxPoint x="300" y="-35" as="targetPoint" />
            <Array as="points">
              <mxPoint x="370" y="-10" />
              <mxPoint x="270" y="-10" />
            </Array>
          </mxGeometry>
        </mxCell>
        <mxCell id="CEy5MRwPspwMGe2h-Den-7" value="动态" style="whiteSpace=wrap;html=1;align=center;" parent="1" vertex="1">
          <mxGeometry x="320" y="20" width="100" height="40" as="geometry" />
        </mxCell>
        <mxCell id="CEy5MRwPspwMGe2h-Den-46" style="edgeStyle=orthogonalEdgeStyle;rounded=0;orthogonalLoop=1;jettySize=auto;html=1;exitX=0;exitY=0.5;exitDx=0;exitDy=0;endArrow=none;endFill=0;entryX=1;entryY=0.5;entryDx=0;entryDy=0;" parent="1" source="CEy5MRwPspwMGe2h-Den-10" target="CEy5MRwPspwMGe2h-Den-7" edge="1">
          <mxGeometry relative="1" as="geometry">
            <mxPoint x="430" y="100" as="targetPoint" />
            <Array as="points">
              <mxPoint x="490" y="-30" />
              <mxPoint x="490" y="40" />
            </Array>
          </mxGeometry>
        </mxCell>
        <mxCell id="CEy5MRwPspwMGe2h-Den-10" value="评论属于" style="shape=rhombus;double=1;perimeter=rhombusPerimeter;whiteSpace=wrap;html=1;align=center;" parent="1" vertex="1">
          <mxGeometry x="550" y="-60" width="120" height="60" as="geometry" />
        </mxCell>
        <mxCell id="CEy5MRwPspwMGe2h-Den-47" style="edgeStyle=orthogonalEdgeStyle;rounded=0;orthogonalLoop=1;jettySize=auto;html=1;exitX=0;exitY=0.5;exitDx=0;exitDy=0;endArrow=none;endFill=0;entryX=1;entryY=0.5;entryDx=0;entryDy=0;" parent="1" source="CEy5MRwPspwMGe2h-Den-11" target="CEy5MRwPspwMGe2h-Den-7" edge="1">
          <mxGeometry relative="1" as="geometry">
            <mxPoint x="430" y="100" as="targetPoint" />
            <Array as="points">
              <mxPoint x="440" y="40" />
              <mxPoint x="440" y="40" />
            </Array>
          </mxGeometry>
        </mxCell>
        <mxCell id="CEy5MRwPspwMGe2h-Den-11" value="点赞属于" style="shape=rhombus;double=1;perimeter=rhombusPerimeter;whiteSpace=wrap;html=1;align=center;" parent="1" vertex="1">
          <mxGeometry x="550" y="10" width="120" height="60" as="geometry" />
        </mxCell>
        <mxCell id="CEy5MRwPspwMGe2h-Den-48" style="edgeStyle=orthogonalEdgeStyle;rounded=0;orthogonalLoop=1;jettySize=auto;html=1;endArrow=none;endFill=0;entryX=1;entryY=0.5;entryDx=0;entryDy=0;" parent="1" source="CEy5MRwPspwMGe2h-Den-15" target="CEy5MRwPspwMGe2h-Den-7" edge="1">
          <mxGeometry relative="1" as="geometry">
            <mxPoint x="514" y="50" as="targetPoint" />
            <Array as="points">
              <mxPoint x="490" y="110" />
              <mxPoint x="490" y="40" />
            </Array>
          </mxGeometry>
        </mxCell>
        <mxCell id="CEy5MRwPspwMGe2h-Den-15" value="转发属于" style="shape=rhombus;double=1;perimeter=rhombusPerimeter;whiteSpace=wrap;html=1;align=center;" parent="1" vertex="1">
          <mxGeometry x="550" y="80" width="120" height="60" as="geometry" />
        </mxCell>
        <mxCell id="CEy5MRwPspwMGe2h-Den-63" style="edgeStyle=orthogonalEdgeStyle;rounded=0;orthogonalLoop=1;jettySize=auto;html=1;exitX=0.5;exitY=1;exitDx=0;exitDy=0;entryX=0.5;entryY=0;entryDx=0;entryDy=0;endArrow=none;endFill=0;" parent="1" source="CEy5MRwPspwMGe2h-Den-17" target="CEy5MRwPspwMGe2h-Den-20" edge="1">
          <mxGeometry relative="1" as="geometry" />
        </mxCell>
        <mxCell id="CEy5MRwPspwMGe2h-Den-134" style="edgeStyle=orthogonalEdgeStyle;rounded=0;orthogonalLoop=1;jettySize=auto;html=1;entryX=1;entryY=0.5;entryDx=0;entryDy=0;endArrow=none;endFill=0;" parent="1" source="CEy5MRwPspwMGe2h-Den-17" target="CEy5MRwPspwMGe2h-Den-130" edge="1">
          <mxGeometry relative="1" as="geometry" />
        </mxCell>
        <mxCell id="CEy5MRwPspwMGe2h-Den-135" style="edgeStyle=orthogonalEdgeStyle;rounded=0;orthogonalLoop=1;jettySize=auto;html=1;endArrow=none;endFill=0;" parent="1" source="CEy5MRwPspwMGe2h-Den-17" target="CEy5MRwPspwMGe2h-Den-131" edge="1">
          <mxGeometry relative="1" as="geometry" />
        </mxCell>
        <mxCell id="CEy5MRwPspwMGe2h-Den-136" style="edgeStyle=orthogonalEdgeStyle;rounded=0;orthogonalLoop=1;jettySize=auto;html=1;entryX=1;entryY=0.5;entryDx=0;entryDy=0;endArrow=none;endFill=0;" parent="1" source="CEy5MRwPspwMGe2h-Den-17" target="CEy5MRwPspwMGe2h-Den-132" edge="1">
          <mxGeometry relative="1" as="geometry" />
        </mxCell>
        <mxCell id="CEy5MRwPspwMGe2h-Den-17" value="歌单" style="whiteSpace=wrap;html=1;align=center;" parent="1" vertex="1">
          <mxGeometry x="80" y="394" width="100" height="40" as="geometry" />
        </mxCell>
        <mxCell id="CEy5MRwPspwMGe2h-Den-60" style="edgeStyle=orthogonalEdgeStyle;rounded=0;orthogonalLoop=1;jettySize=auto;html=1;endArrow=none;endFill=0;exitX=0;exitY=1;exitDx=0;exitDy=0;entryX=0.867;entryY=0;entryDx=0;entryDy=0;entryPerimeter=0;" parent="1" edge="1">
          <mxGeometry relative="1" as="geometry">
            <mxPoint x="171" y="345" as="sourcePoint" />
            <mxPoint x="167.70000000000027" y="394" as="targetPoint" />
            <Array as="points">
              <mxPoint x="171" y="394" />
            </Array>
          </mxGeometry>
        </mxCell>
        <mxCell id="CEy5MRwPspwMGe2h-Den-18" value="收藏" style="shape=rhombus;perimeter=rhombusPerimeter;whiteSpace=wrap;html=1;align=center;" parent="1" vertex="1">
          <mxGeometry x="140" y="300" width="120" height="60" as="geometry" />
        </mxCell>
        <mxCell id="CEy5MRwPspwMGe2h-Den-59" style="edgeStyle=orthogonalEdgeStyle;rounded=0;orthogonalLoop=1;jettySize=auto;html=1;exitX=1;exitY=1;exitDx=0;exitDy=0;entryX=0.25;entryY=0;entryDx=0;entryDy=0;endArrow=none;endFill=0;" parent="1" source="CEy5MRwPspwMGe2h-Den-19" target="CEy5MRwPspwMGe2h-Den-17" edge="1">
          <mxGeometry relative="1" as="geometry">
            <Array as="points">
              <mxPoint x="100" y="394" />
            </Array>
          </mxGeometry>
        </mxCell>
        <mxCell id="CEy5MRwPspwMGe2h-Den-129" style="edgeStyle=orthogonalEdgeStyle;rounded=0;orthogonalLoop=1;jettySize=auto;html=1;exitX=0;exitY=0.5;exitDx=0;exitDy=0;endArrow=none;endFill=0;entryX=1;entryY=0.5;entryDx=0;entryDy=0;" parent="1" source="CEy5MRwPspwMGe2h-Den-19" target="CEy5MRwPspwMGe2h-Den-128" edge="1">
          <mxGeometry relative="1" as="geometry">
            <mxPoint x="-4" y="300" as="targetPoint" />
            <Array as="points">
              <mxPoint x="-10" y="330" />
              <mxPoint x="-10" y="330" />
            </Array>
          </mxGeometry>
        </mxCell>
        <mxCell id="CEy5MRwPspwMGe2h-Den-189" style="edgeStyle=orthogonalEdgeStyle;rounded=0;orthogonalLoop=1;jettySize=auto;html=1;entryX=0;entryY=0.25;entryDx=0;entryDy=0;" parent="1" source="CEy5MRwPspwMGe2h-Den-19" target="CEy5MRwPspwMGe2h-Den-1" edge="1">
          <mxGeometry relative="1" as="geometry">
            <Array as="points">
              <mxPoint x="70" y="260" />
            </Array>
          </mxGeometry>
        </mxCell>
        <mxCell id="CEy5MRwPspwMGe2h-Den-19" value="创建" style="shape=rhombus;perimeter=rhombusPerimeter;whiteSpace=wrap;html=1;align=center;" parent="1" vertex="1">
          <mxGeometry x="10" y="300" width="120" height="60" as="geometry" />
        </mxCell>
        <mxCell id="CEy5MRwPspwMGe2h-Den-175" style="edgeStyle=orthogonalEdgeStyle;rounded=0;orthogonalLoop=1;jettySize=auto;html=1;endArrow=none;endFill=0;entryX=0.585;entryY=0.001;entryDx=0;entryDy=0;entryPerimeter=0;exitX=0.5;exitY=1;exitDx=0;exitDy=0;" parent="1" source="CEy5MRwPspwMGe2h-Den-20" target="CEy5MRwPspwMGe2h-Den-22" edge="1">
          <mxGeometry relative="1" as="geometry">
            <mxPoint x="129.23000000000002" y="539.5499999999997" as="targetPoint" />
            <Array as="points">
              <mxPoint x="130" y="560" />
            </Array>
            <mxPoint x="130.00000000000045" y="530" as="sourcePoint" />
          </mxGeometry>
        </mxCell>
        <mxCell id="CEy5MRwPspwMGe2h-Den-20" value="属于歌单" style="shape=rhombus;perimeter=rhombusPerimeter;whiteSpace=wrap;html=1;align=center;" parent="1" vertex="1">
          <mxGeometry x="70" y="464" width="120" height="60" as="geometry" />
        </mxCell>
        <mxCell id="CEy5MRwPspwMGe2h-Den-66" style="edgeStyle=orthogonalEdgeStyle;rounded=0;orthogonalLoop=1;jettySize=auto;html=1;entryX=0.5;entryY=0;entryDx=0;entryDy=0;endArrow=none;endFill=0;exitX=0.658;exitY=1.017;exitDx=0;exitDy=0;exitPerimeter=0;" parent="1" source="CEy5MRwPspwMGe2h-Den-260" target="CEy5MRwPspwMGe2h-Den-25" edge="1">
          <mxGeometry relative="1" as="geometry">
            <mxPoint x="291.75" y="850" as="sourcePoint" />
          </mxGeometry>
        </mxCell>
        <mxCell id="CEy5MRwPspwMGe2h-Den-151" style="edgeStyle=orthogonalEdgeStyle;rounded=0;orthogonalLoop=1;jettySize=auto;html=1;entryX=1;entryY=0.5;entryDx=0;entryDy=0;endArrow=none;endFill=0;exitX=0;exitY=0.5;exitDx=0;exitDy=0;" parent="1" source="CEy5MRwPspwMGe2h-Den-22" target="CEy5MRwPspwMGe2h-Den-150" edge="1">
          <mxGeometry relative="1" as="geometry">
            <Array as="points">
              <mxPoint x="50" y="580" />
              <mxPoint x="50" y="580" />
            </Array>
          </mxGeometry>
        </mxCell>
        <mxCell id="CEy5MRwPspwMGe2h-Den-22" value="歌曲" style="whiteSpace=wrap;html=1;align=center;" parent="1" vertex="1">
          <mxGeometry x="70" y="560" width="100" height="40" as="geometry" />
        </mxCell>
        <mxCell id="CEy5MRwPspwMGe2h-Den-144" style="edgeStyle=orthogonalEdgeStyle;rounded=0;orthogonalLoop=1;jettySize=auto;html=1;endArrow=none;endFill=0;exitX=0.5;exitY=0;exitDx=0;exitDy=0;" parent="1" source="CEy5MRwPspwMGe2h-Den-23" edge="1">
          <mxGeometry relative="1" as="geometry">
            <mxPoint x="290" y="290" as="targetPoint" />
            <Array as="points">
              <mxPoint x="290" y="352" />
              <mxPoint x="290" y="352" />
            </Array>
          </mxGeometry>
        </mxCell>
        <mxCell id="CEy5MRwPspwMGe2h-Den-170" style="edgeStyle=orthogonalEdgeStyle;rounded=0;orthogonalLoop=1;jettySize=auto;html=1;entryX=0;entryY=0.5;entryDx=0;entryDy=0;endArrow=none;endFill=0;exitX=1;exitY=0.5;exitDx=0;exitDy=0;" parent="1" source="CEy5MRwPspwMGe2h-Den-23" target="CEy5MRwPspwMGe2h-Den-169" edge="1">
          <mxGeometry relative="1" as="geometry">
            <Array as="points">
              <mxPoint x="390" y="494" />
              <mxPoint x="390" y="514" />
            </Array>
          </mxGeometry>
        </mxCell>
        <mxCell id="CEy5MRwPspwMGe2h-Den-174" style="edgeStyle=orthogonalEdgeStyle;rounded=0;orthogonalLoop=1;jettySize=auto;html=1;exitX=0.5;exitY=1;exitDx=0;exitDy=0;" parent="1" edge="1">
          <mxGeometry relative="1" as="geometry">
            <mxPoint x="291" y="464" as="sourcePoint" />
            <mxPoint x="290" y="600" as="targetPoint" />
            <Array as="points">
              <mxPoint x="290" y="521" />
              <mxPoint x="289" y="600" />
            </Array>
          </mxGeometry>
        </mxCell>
        <mxCell id="CEy5MRwPspwMGe2h-Den-179" style="edgeStyle=orthogonalEdgeStyle;rounded=0;orthogonalLoop=1;jettySize=auto;html=1;endArrow=none;endFill=0;exitX=1;exitY=0.5;exitDx=0;exitDy=0;" parent="1" source="CEy5MRwPspwMGe2h-Den-23" target="CEy5MRwPspwMGe2h-Den-178" edge="1">
          <mxGeometry relative="1" as="geometry">
            <Array as="points">
              <mxPoint x="390" y="494" />
              <mxPoint x="390" y="474" />
            </Array>
          </mxGeometry>
        </mxCell>
        <mxCell id="CEy5MRwPspwMGe2h-Den-23" value="播放" style="shape=rhombus;perimeter=rhombusPerimeter;whiteSpace=wrap;html=1;align=center;" parent="1" vertex="1">
          <mxGeometry x="230" y="464" width="120" height="60" as="geometry" />
        </mxCell>
        <mxCell id="CEy5MRwPspwMGe2h-Den-242" style="edgeStyle=orthogonalEdgeStyle;rounded=0;orthogonalLoop=1;jettySize=auto;html=1;entryX=0.002;entryY=0.713;entryDx=0;entryDy=0;exitX=1;exitY=0.5;exitDx=0;exitDy=0;endArrow=none;endFill=0;entryPerimeter=0;" parent="1" source="CEy5MRwPspwMGe2h-Den-24" target="CEy5MRwPspwMGe2h-Den-28" edge="1">
          <mxGeometry relative="1" as="geometry">
            <Array as="points" />
          </mxGeometry>
        </mxCell>
        <mxCell id="CEy5MRwPspwMGe2h-Den-265" style="edgeStyle=orthogonalEdgeStyle;rounded=0;orthogonalLoop=1;jettySize=auto;html=1;entryX=0.845;entryY=0.999;entryDx=0;entryDy=0;endArrow=none;endFill=0;exitX=0;exitY=0.5;exitDx=0;exitDy=0;entryPerimeter=0;" parent="1" source="CEy5MRwPspwMGe2h-Den-24" target="CEy5MRwPspwMGe2h-Den-260" edge="1">
          <mxGeometry relative="1" as="geometry">
            <Array as="points">
              <mxPoint x="330" y="660" />
              <mxPoint x="330" y="640" />
            </Array>
          </mxGeometry>
        </mxCell>
        <mxCell id="CEy5MRwPspwMGe2h-Den-24" value="制作" style="shape=rhombus;perimeter=rhombusPerimeter;whiteSpace=wrap;html=1;align=center;" parent="1" vertex="1">
          <mxGeometry x="370" y="630" width="120" height="60" as="geometry" />
        </mxCell>
        <mxCell id="CEy5MRwPspwMGe2h-Den-146" style="edgeStyle=orthogonalEdgeStyle;rounded=0;orthogonalLoop=1;jettySize=auto;html=1;entryX=0;entryY=0.5;entryDx=0;entryDy=0;exitX=1;exitY=0.5;exitDx=0;exitDy=0;" parent="1" source="CEy5MRwPspwMGe2h-Den-25" target="CEy5MRwPspwMGe2h-Den-27" edge="1">
          <mxGeometry relative="1" as="geometry">
            <mxPoint x="668" y="670" as="sourcePoint" />
            <Array as="points">
              <mxPoint x="513" y="780" />
              <mxPoint x="513" y="780" />
            </Array>
          </mxGeometry>
        </mxCell>
        <mxCell id="CEy5MRwPspwMGe2h-Den-25" value="属于专辑" style="shape=rhombus;perimeter=rhombusPerimeter;whiteSpace=wrap;html=1;align=center;" parent="1" vertex="1">
          <mxGeometry x="250" y="750" width="120" height="60" as="geometry" />
        </mxCell>
        <mxCell id="UvHq0rs_nV5sJWZx447b-2" style="edgeStyle=orthogonalEdgeStyle;rounded=0;orthogonalLoop=1;jettySize=auto;html=1;exitX=1;exitY=0.5;exitDx=0;exitDy=0;endArrow=none;endFill=0;" parent="1" source="CEy5MRwPspwMGe2h-Den-27" edge="1">
          <mxGeometry relative="1" as="geometry">
            <mxPoint x="610" y="780" as="targetPoint" />
            <Array as="points">
              <mxPoint x="610" y="780" />
            </Array>
          </mxGeometry>
        </mxCell>
        <mxCell id="CEy5MRwPspwMGe2h-Den-27" value="专辑" style="whiteSpace=wrap;html=1;align=center;" parent="1" vertex="1">
          <mxGeometry x="435" y="760" width="100" height="40" as="geometry" />
        </mxCell>
        <mxCell id="CEy5MRwPspwMGe2h-Den-160" style="edgeStyle=orthogonalEdgeStyle;rounded=0;orthogonalLoop=1;jettySize=auto;html=1;entryX=0.5;entryY=1;entryDx=0;entryDy=0;endArrow=none;endFill=0;exitX=0.75;exitY=0;exitDx=0;exitDy=0;" parent="1" source="CEy5MRwPspwMGe2h-Den-28" target="CEy5MRwPspwMGe2h-Den-153" edge="1">
          <mxGeometry relative="1" as="geometry" />
        </mxCell>
        <mxCell id="CEy5MRwPspwMGe2h-Den-161" style="edgeStyle=orthogonalEdgeStyle;rounded=0;orthogonalLoop=1;jettySize=auto;html=1;entryX=0.5;entryY=1;entryDx=0;entryDy=0;endArrow=none;endFill=0;exitX=0.75;exitY=0;exitDx=0;exitDy=0;" parent="1" source="CEy5MRwPspwMGe2h-Den-28" target="CEy5MRwPspwMGe2h-Den-158" edge="1">
          <mxGeometry relative="1" as="geometry" />
        </mxCell>
        <mxCell id="CEy5MRwPspwMGe2h-Den-162" style="edgeStyle=orthogonalEdgeStyle;rounded=0;orthogonalLoop=1;jettySize=auto;html=1;entryX=0.5;entryY=1;entryDx=0;entryDy=0;endArrow=none;endFill=0;exitX=0.75;exitY=0;exitDx=0;exitDy=0;" parent="1" source="CEy5MRwPspwMGe2h-Den-28" target="CEy5MRwPspwMGe2h-Den-154" edge="1">
          <mxGeometry relative="1" as="geometry" />
        </mxCell>
        <mxCell id="CEy5MRwPspwMGe2h-Den-28" value="歌手" style="whiteSpace=wrap;html=1;align=center;" parent="1" vertex="1">
          <mxGeometry x="598" y="631" width="100" height="40" as="geometry" />
        </mxCell>
        <mxCell id="UvHq0rs_nV5sJWZx447b-3" style="edgeStyle=orthogonalEdgeStyle;rounded=0;orthogonalLoop=1;jettySize=auto;html=1;endArrow=none;endFill=0;exitX=0.5;exitY=0;exitDx=0;exitDy=0;entryX=0.47;entryY=0.992;entryDx=0;entryDy=0;entryPerimeter=0;" parent="1" source="CEy5MRwPspwMGe2h-Den-29" target="CEy5MRwPspwMGe2h-Den-28" edge="1">
          <mxGeometry relative="1" as="geometry">
            <mxPoint x="760" y="895" as="sourcePoint" />
            <mxPoint x="640" y="671" as="targetPoint" />
            <Array as="points" />
          </mxGeometry>
        </mxCell>
        <mxCell id="CEy5MRwPspwMGe2h-Den-29" value="发布专辑" style="shape=rhombus;perimeter=rhombusPerimeter;whiteSpace=wrap;html=1;align=center;" parent="1" vertex="1">
          <mxGeometry x="585" y="750" width="120" height="60" as="geometry" />
        </mxCell>
        <mxCell id="CEy5MRwPspwMGe2h-Den-195" style="edgeStyle=orthogonalEdgeStyle;rounded=0;orthogonalLoop=1;jettySize=auto;html=1;entryX=1;entryY=0.5;entryDx=0;entryDy=0;endArrow=none;endFill=0;" parent="1" source="CEy5MRwPspwMGe2h-Den-31" target="CEy5MRwPspwMGe2h-Den-194" edge="1">
          <mxGeometry relative="1" as="geometry" />
        </mxCell>
        <mxCell id="CEy5MRwPspwMGe2h-Den-264" style="edgeStyle=orthogonalEdgeStyle;rounded=0;orthogonalLoop=1;jettySize=auto;html=1;entryX=0;entryY=0.75;entryDx=0;entryDy=0;endArrow=none;endFill=0;" parent="1" source="CEy5MRwPspwMGe2h-Den-31" target="CEy5MRwPspwMGe2h-Den-261" edge="1">
          <mxGeometry relative="1" as="geometry">
            <Array as="points">
              <mxPoint x="180" y="660" />
              <mxPoint x="180" y="630" />
            </Array>
          </mxGeometry>
        </mxCell>
        <mxCell id="CEy5MRwPspwMGe2h-Den-31" value="MV" style="whiteSpace=wrap;html=1;align=center;" parent="1" vertex="1">
          <mxGeometry x="70" y="640" width="100" height="40" as="geometry" />
        </mxCell>
        <mxCell id="CEy5MRwPspwMGe2h-Den-49" style="edgeStyle=orthogonalEdgeStyle;rounded=0;orthogonalLoop=1;jettySize=auto;html=1;exitX=0;exitY=0.5;exitDx=0;exitDy=0;entryX=1;entryY=0.5;entryDx=0;entryDy=0;" parent="1" source="CEy5MRwPspwMGe2h-Den-40" target="CEy5MRwPspwMGe2h-Den-10" edge="1">
          <mxGeometry relative="1" as="geometry">
            <mxPoint x="721" y="-30" as="targetPoint" />
          </mxGeometry>
        </mxCell>
        <mxCell id="CEy5MRwPspwMGe2h-Den-92" style="edgeStyle=orthogonalEdgeStyle;rounded=0;orthogonalLoop=1;jettySize=auto;html=1;entryX=0.5;entryY=1;entryDx=0;entryDy=0;endArrow=none;endFill=0;" parent="1" source="CEy5MRwPspwMGe2h-Den-40" target="CEy5MRwPspwMGe2h-Den-87" edge="1">
          <mxGeometry relative="1" as="geometry">
            <Array as="points">
              <mxPoint x="750" y="-70" />
              <mxPoint x="687" y="-70" />
            </Array>
          </mxGeometry>
        </mxCell>
        <mxCell id="CEy5MRwPspwMGe2h-Den-93" style="edgeStyle=orthogonalEdgeStyle;rounded=0;orthogonalLoop=1;jettySize=auto;html=1;entryX=0.5;entryY=1;entryDx=0;entryDy=0;endArrow=none;endFill=0;" parent="1" edge="1">
          <mxGeometry relative="1" as="geometry">
            <mxPoint x="750.0526315789475" y="-49.6700000000003" as="sourcePoint" />
            <mxPoint x="787" y="-88.99999999999977" as="targetPoint" />
            <Array as="points">
              <mxPoint x="750" y="-70" />
              <mxPoint x="787" y="-70" />
            </Array>
          </mxGeometry>
        </mxCell>
        <mxCell id="CEy5MRwPspwMGe2h-Den-94" style="edgeStyle=orthogonalEdgeStyle;rounded=0;orthogonalLoop=1;jettySize=auto;html=1;entryX=0.5;entryY=1;entryDx=0;entryDy=0;endArrow=none;endFill=0;exitX=0.5;exitY=0;exitDx=0;exitDy=0;" parent="1" source="CEy5MRwPspwMGe2h-Den-40" target="CEy5MRwPspwMGe2h-Den-82" edge="1">
          <mxGeometry relative="1" as="geometry">
            <Array as="points">
              <mxPoint x="750" y="-70" />
              <mxPoint x="887" y="-70" />
            </Array>
          </mxGeometry>
        </mxCell>
        <mxCell id="CEy5MRwPspwMGe2h-Den-40" value="评论" style="shape=ext;margin=3;double=1;whiteSpace=wrap;html=1;align=center;" parent="1" vertex="1">
          <mxGeometry x="690" y="-50.67" width="100" height="40" as="geometry" />
        </mxCell>
        <mxCell id="CEy5MRwPspwMGe2h-Den-50" style="edgeStyle=orthogonalEdgeStyle;rounded=0;orthogonalLoop=1;jettySize=auto;html=1;exitX=0;exitY=0.5;exitDx=0;exitDy=0;entryX=1;entryY=0.5;entryDx=0;entryDy=0;" parent="1" source="CEy5MRwPspwMGe2h-Den-41" target="CEy5MRwPspwMGe2h-Den-11" edge="1">
          <mxGeometry relative="1" as="geometry">
            <mxPoint x="721" y="40" as="targetPoint" />
          </mxGeometry>
        </mxCell>
        <mxCell id="CEy5MRwPspwMGe2h-Den-41" value="点赞" style="shape=ext;margin=3;double=1;whiteSpace=wrap;html=1;align=center;" parent="1" vertex="1">
          <mxGeometry x="690" y="19.33" width="100" height="40" as="geometry" />
        </mxCell>
        <mxCell id="CEy5MRwPspwMGe2h-Den-51" style="edgeStyle=orthogonalEdgeStyle;rounded=0;orthogonalLoop=1;jettySize=auto;html=1;exitX=0;exitY=0.5;exitDx=0;exitDy=0;entryX=1;entryY=0.5;entryDx=0;entryDy=0;" parent="1" source="CEy5MRwPspwMGe2h-Den-43" target="CEy5MRwPspwMGe2h-Den-15" edge="1">
          <mxGeometry relative="1" as="geometry">
            <mxPoint x="721" y="110" as="targetPoint" />
          </mxGeometry>
        </mxCell>
        <mxCell id="CEy5MRwPspwMGe2h-Den-96" style="edgeStyle=orthogonalEdgeStyle;rounded=0;orthogonalLoop=1;jettySize=auto;html=1;entryX=0;entryY=0.5;entryDx=0;entryDy=0;endArrow=none;endFill=0;exitX=1;exitY=0.5;exitDx=0;exitDy=0;" parent="1" source="CEy5MRwPspwMGe2h-Den-43" target="CEy5MRwPspwMGe2h-Den-88" edge="1">
          <mxGeometry relative="1" as="geometry">
            <mxPoint x="800" y="110" as="sourcePoint" />
            <Array as="points">
              <mxPoint x="800" y="109" />
              <mxPoint x="800" y="90" />
            </Array>
          </mxGeometry>
        </mxCell>
        <mxCell id="CEy5MRwPspwMGe2h-Den-97" style="edgeStyle=orthogonalEdgeStyle;rounded=0;orthogonalLoop=1;jettySize=auto;html=1;entryX=0;entryY=0.5;entryDx=0;entryDy=0;endArrow=none;endFill=0;" parent="1" target="CEy5MRwPspwMGe2h-Den-85" edge="1">
          <mxGeometry relative="1" as="geometry">
            <mxPoint x="800" y="130" as="sourcePoint" />
            <Array as="points">
              <mxPoint x="800" y="129" />
              <mxPoint x="800" y="130" />
            </Array>
          </mxGeometry>
        </mxCell>
        <mxCell id="CEy5MRwPspwMGe2h-Den-98" style="edgeStyle=orthogonalEdgeStyle;rounded=0;orthogonalLoop=1;jettySize=auto;html=1;entryX=0;entryY=0.5;entryDx=0;entryDy=0;endArrow=none;endFill=0;" parent="1" source="CEy5MRwPspwMGe2h-Den-43" target="CEy5MRwPspwMGe2h-Den-89" edge="1">
          <mxGeometry relative="1" as="geometry">
            <Array as="points">
              <mxPoint x="800" y="170" />
            </Array>
          </mxGeometry>
        </mxCell>
        <mxCell id="CEy5MRwPspwMGe2h-Den-43" value="转发" style="shape=ext;margin=3;double=1;whiteSpace=wrap;html=1;align=center;" parent="1" vertex="1">
          <mxGeometry x="690" y="89.33" width="100" height="40" as="geometry" />
        </mxCell>
        <mxCell id="CEy5MRwPspwMGe2h-Den-65" style="edgeStyle=orthogonalEdgeStyle;rounded=0;orthogonalLoop=1;jettySize=auto;html=1;exitX=0.5;exitY=1;exitDx=0;exitDy=0;" parent="1" edge="1">
          <mxGeometry relative="1" as="geometry">
            <mxPoint x="485" y="666" as="sourcePoint" />
            <mxPoint x="485" y="666" as="targetPoint" />
          </mxGeometry>
        </mxCell>
        <mxCell id="CEy5MRwPspwMGe2h-Den-76" style="edgeStyle=orthogonalEdgeStyle;rounded=0;orthogonalLoop=1;jettySize=auto;html=1;exitX=0.5;exitY=1;exitDx=0;exitDy=0;" parent="1" source="CEy5MRwPspwMGe2h-Den-28" target="CEy5MRwPspwMGe2h-Den-28" edge="1">
          <mxGeometry relative="1" as="geometry" />
        </mxCell>
        <mxCell id="CEy5MRwPspwMGe2h-Den-81" value="评论时间" style="ellipse;whiteSpace=wrap;html=1;align=center;" parent="1" vertex="1">
          <mxGeometry x="737" y="-130" width="100" height="40" as="geometry" />
        </mxCell>
        <mxCell id="CEy5MRwPspwMGe2h-Den-82" value="评论内容" style="ellipse;whiteSpace=wrap;html=1;align=center;" parent="1" vertex="1">
          <mxGeometry x="837" y="-130" width="100" height="40" as="geometry" />
        </mxCell>
        <mxCell id="CEy5MRwPspwMGe2h-Den-85" value="转发时间" style="ellipse;whiteSpace=wrap;html=1;align=center;" parent="1" vertex="1">
          <mxGeometry x="810" y="110" width="100" height="40" as="geometry" />
        </mxCell>
        <mxCell id="CEy5MRwPspwMGe2h-Den-95" style="edgeStyle=orthogonalEdgeStyle;rounded=0;orthogonalLoop=1;jettySize=auto;html=1;exitX=0;exitY=0.5;exitDx=0;exitDy=0;entryX=1;entryY=0.5;entryDx=0;entryDy=0;endArrow=none;endFill=0;" parent="1" source="CEy5MRwPspwMGe2h-Den-86" target="CEy5MRwPspwMGe2h-Den-41" edge="1">
          <mxGeometry relative="1" as="geometry" />
        </mxCell>
        <mxCell id="CEy5MRwPspwMGe2h-Den-86" value="&lt;span style=&quot;border-bottom: 1px dotted&quot;&gt;点赞ID&lt;/span&gt;" style="ellipse;whiteSpace=wrap;html=1;align=center;dashed=1;" parent="1" vertex="1">
          <mxGeometry x="817" width="100" height="40" as="geometry" />
        </mxCell>
        <mxCell id="CEy5MRwPspwMGe2h-Den-87" value="&lt;span style=&quot;border-bottom: 1px dotted&quot;&gt;评论ID&lt;/span&gt;" style="ellipse;whiteSpace=wrap;html=1;align=center;dashed=1;" parent="1" vertex="1">
          <mxGeometry x="637" y="-130" width="100" height="40" as="geometry" />
        </mxCell>
        <mxCell id="CEy5MRwPspwMGe2h-Den-88" value="&lt;span style=&quot;border-bottom: 1px dotted&quot;&gt;转发ID&lt;/span&gt;" style="ellipse;whiteSpace=wrap;html=1;align=center;dashed=1;" parent="1" vertex="1">
          <mxGeometry x="810" y="70" width="100" height="40" as="geometry" />
        </mxCell>
        <mxCell id="CEy5MRwPspwMGe2h-Den-89" value="转发内容" style="ellipse;whiteSpace=wrap;html=1;align=center;" parent="1" vertex="1">
          <mxGeometry x="810" y="150" width="100" height="40" as="geometry" />
        </mxCell>
        <mxCell id="CEy5MRwPspwMGe2h-Den-100" value="发布动态时间" style="ellipse;whiteSpace=wrap;html=1;align=center;" parent="1" vertex="1">
          <mxGeometry x="440" y="120.00000000000001" width="100" height="40" as="geometry" />
        </mxCell>
        <mxCell id="CEy5MRwPspwMGe2h-Den-103" value="动态内容" style="ellipse;whiteSpace=wrap;html=1;align=center;" parent="1" vertex="1">
          <mxGeometry x="220" y="-80" width="100" height="40" as="geometry" />
        </mxCell>
        <mxCell id="CEy5MRwPspwMGe2h-Den-105" value="动态ID" style="ellipse;whiteSpace=wrap;html=1;align=center;fontStyle=4;" parent="1" vertex="1">
          <mxGeometry x="420" y="-80" width="100" height="40" as="geometry" />
        </mxCell>
        <mxCell id="CEy5MRwPspwMGe2h-Den-108" value="分享范围" style="ellipse;whiteSpace=wrap;html=1;align=center;" parent="1" vertex="1">
          <mxGeometry x="320" y="-80" width="100" height="40" as="geometry" />
        </mxCell>
        <mxCell id="CEy5MRwPspwMGe2h-Den-117" value="私信内容" style="ellipse;whiteSpace=wrap;html=1;align=center;" parent="1" vertex="1">
          <mxGeometry x="-80" y="79.33" width="100" height="40" as="geometry" />
        </mxCell>
        <mxCell id="CEy5MRwPspwMGe2h-Den-118" value="私信ID" style="ellipse;whiteSpace=wrap;html=1;align=center;fontStyle=4;" parent="1" vertex="1">
          <mxGeometry x="-80" y="-20.669999999999998" width="100" height="40" as="geometry" />
        </mxCell>
        <mxCell id="CEy5MRwPspwMGe2h-Den-119" value="私信时间" style="ellipse;whiteSpace=wrap;html=1;align=center;" parent="1" vertex="1">
          <mxGeometry x="-80" y="29.33" width="100" height="40" as="geometry" />
        </mxCell>
        <mxCell id="CEy5MRwPspwMGe2h-Den-128" value="创建时间" style="ellipse;whiteSpace=wrap;html=1;align=center;" parent="1" vertex="1">
          <mxGeometry x="-110" y="310" width="100" height="40" as="geometry" />
        </mxCell>
        <mxCell id="CEy5MRwPspwMGe2h-Den-130" value="歌单ID" style="ellipse;whiteSpace=wrap;html=1;align=center;fontStyle=4;" parent="1" vertex="1">
          <mxGeometry x="-70" y="354" width="100" height="40" as="geometry" />
        </mxCell>
        <mxCell id="CEy5MRwPspwMGe2h-Den-131" value="歌单标题" style="ellipse;whiteSpace=wrap;html=1;align=center;" parent="1" vertex="1">
          <mxGeometry x="-70" y="394" width="100" height="40" as="geometry" />
        </mxCell>
        <mxCell id="CEy5MRwPspwMGe2h-Den-132" value="排序方式" style="ellipse;whiteSpace=wrap;html=1;align=center;" parent="1" vertex="1">
          <mxGeometry x="-70" y="434" width="100" height="40" as="geometry" />
        </mxCell>
        <mxCell id="CEy5MRwPspwMGe2h-Den-150" value="曲名" style="ellipse;whiteSpace=wrap;html=1;align=center;" parent="1" vertex="1">
          <mxGeometry x="-50" y="560" width="100" height="40" as="geometry" />
        </mxCell>
        <mxCell id="CEy5MRwPspwMGe2h-Den-153" value="姓名" style="ellipse;whiteSpace=wrap;html=1;align=center;" parent="1" vertex="1">
          <mxGeometry x="670" y="541" width="100" height="40" as="geometry" />
        </mxCell>
        <mxCell id="CEy5MRwPspwMGe2h-Den-154" value="风格" style="ellipse;whiteSpace=wrap;html=1;align=center;" parent="1" vertex="1">
          <mxGeometry x="890" y="541" width="100" height="40" as="geometry" />
        </mxCell>
        <mxCell id="CEy5MRwPspwMGe2h-Den-158" value="地区" style="ellipse;whiteSpace=wrap;html=1;align=center;" parent="1" vertex="1">
          <mxGeometry x="780" y="541" width="100" height="40" as="geometry" />
        </mxCell>
        <mxCell id="CEy5MRwPspwMGe2h-Den-166" style="edgeStyle=orthogonalEdgeStyle;rounded=0;orthogonalLoop=1;jettySize=auto;html=1;endArrow=none;endFill=0;exitX=0;exitY=0.5;exitDx=0;exitDy=0;entryX=1;entryY=0.5;entryDx=0;entryDy=0;" parent="1" source="CEy5MRwPspwMGe2h-Den-165" target="CEy5MRwPspwMGe2h-Den-29" edge="1">
          <mxGeometry relative="1" as="geometry">
            <mxPoint x="705" y="795" as="targetPoint" />
            <mxPoint x="701" y="825" as="sourcePoint" />
          </mxGeometry>
        </mxCell>
        <mxCell id="CEy5MRwPspwMGe2h-Den-165" value="发布专辑时间" style="ellipse;whiteSpace=wrap;html=1;align=center;" parent="1" vertex="1">
          <mxGeometry x="739" y="760" width="100" height="40" as="geometry" />
        </mxCell>
        <mxCell id="CEy5MRwPspwMGe2h-Den-169" value="播放状态" style="ellipse;whiteSpace=wrap;html=1;align=center;" parent="1" vertex="1">
          <mxGeometry x="420" y="494" width="100" height="40" as="geometry" />
        </mxCell>
        <mxCell id="CEy5MRwPspwMGe2h-Den-180" style="edgeStyle=orthogonalEdgeStyle;rounded=0;orthogonalLoop=1;jettySize=auto;html=1;entryX=1;entryY=0.25;entryDx=0;entryDy=0;endArrow=none;endFill=0;exitX=0;exitY=0.5;exitDx=0;exitDy=0;" parent="1" source="CEy5MRwPspwMGe2h-Den-176" target="CEy5MRwPspwMGe2h-Den-260" edge="1">
          <mxGeometry relative="1" as="geometry">
            <mxPoint x="410" y="557.5" as="targetPoint" />
            <Array as="points">
              <mxPoint x="345" y="620" />
            </Array>
          </mxGeometry>
        </mxCell>
        <mxCell id="CEy5MRwPspwMGe2h-Den-176" value="评论" style="shape=rhombus;perimeter=rhombusPerimeter;whiteSpace=wrap;html=1;align=center;" parent="1" vertex="1">
          <mxGeometry x="440" y="590" width="120" height="60" as="geometry" />
        </mxCell>
        <mxCell id="CEy5MRwPspwMGe2h-Den-178" value="播放顺序" style="ellipse;whiteSpace=wrap;html=1;align=center;" parent="1" vertex="1">
          <mxGeometry x="420" y="454" width="100" height="40" as="geometry" />
        </mxCell>
        <mxCell id="CEy5MRwPspwMGe2h-Den-192" style="edgeStyle=orthogonalEdgeStyle;rounded=0;orthogonalLoop=1;jettySize=auto;html=1;entryX=0.5;entryY=0;entryDx=0;entryDy=0;endArrow=none;endFill=0;" parent="1" source="CEy5MRwPspwMGe2h-Den-190" target="CEy5MRwPspwMGe2h-Den-27" edge="1">
          <mxGeometry relative="1" as="geometry">
            <mxPoint x="485" y="666" as="targetPoint" />
            <Array as="points">
              <mxPoint x="535" y="750" />
              <mxPoint x="485" y="750" />
            </Array>
          </mxGeometry>
        </mxCell>
        <mxCell id="CEy5MRwPspwMGe2h-Den-190" value="&lt;u&gt;专辑ID&lt;/u&gt;" style="ellipse;whiteSpace=wrap;html=1;align=center;" parent="1" vertex="1">
          <mxGeometry x="485" y="696" width="100" height="40" as="geometry" />
        </mxCell>
        <mxCell id="CEy5MRwPspwMGe2h-Den-194" value="视频标题" style="ellipse;whiteSpace=wrap;html=1;align=center;" parent="1" vertex="1">
          <mxGeometry x="-50" y="640" width="100" height="40" as="geometry" />
        </mxCell>
        <mxCell id="CEy5MRwPspwMGe2h-Den-196" value="关注时间" style="ellipse;whiteSpace=wrap;html=1;align=center;" parent="1" vertex="1">
          <mxGeometry x="870" y="320" width="100" height="40" as="geometry" />
        </mxCell>
        <mxCell id="CEy5MRwPspwMGe2h-Den-215" style="edgeStyle=orthogonalEdgeStyle;rounded=0;orthogonalLoop=1;jettySize=auto;html=1;exitX=0.5;exitY=1;exitDx=0;exitDy=0;entryX=0.5;entryY=0;entryDx=0;entryDy=0;endArrow=none;endFill=0;" parent="1" source="CEy5MRwPspwMGe2h-Den-214" target="CEy5MRwPspwMGe2h-Den-176" edge="1">
          <mxGeometry relative="1" as="geometry" />
        </mxCell>
        <mxCell id="CEy5MRwPspwMGe2h-Den-214" value="评论内容" style="ellipse;whiteSpace=wrap;html=1;align=center;" parent="1" vertex="1">
          <mxGeometry x="450" y="540" width="100" height="40" as="geometry" />
        </mxCell>
        <mxCell id="Fw19qUdo11Y4iBwB-dgM-3" style="edgeStyle=orthogonalEdgeStyle;rounded=0;orthogonalLoop=1;jettySize=auto;html=1;entryX=0.853;entryY=0.997;entryDx=0;entryDy=0;entryPerimeter=0;exitX=0;exitY=0.5;exitDx=0;exitDy=0;endArrow=none;endFill=0;" edge="1" parent="1" source="CEy5MRwPspwMGe2h-Den-225" target="CEy5MRwPspwMGe2h-Den-1">
          <mxGeometry relative="1" as="geometry">
            <mxPoint x="370" y="289.9999999999998" as="targetPoint" />
            <Array as="points">
              <mxPoint x="670" y="330" />
              <mxPoint x="670" y="370" />
              <mxPoint x="365" y="370" />
            </Array>
          </mxGeometry>
        </mxCell>
        <mxCell id="CEy5MRwPspwMGe2h-Den-225" value="&lt;u&gt;网易云ID&lt;/u&gt;" style="ellipse;whiteSpace=wrap;html=1;align=center;" parent="1" vertex="1">
          <mxGeometry x="690" y="310" width="100" height="40" as="geometry" />
        </mxCell>
        <mxCell id="Fw19qUdo11Y4iBwB-dgM-2" style="edgeStyle=orthogonalEdgeStyle;rounded=0;orthogonalLoop=1;jettySize=auto;html=1;entryX=0.848;entryY=1.017;entryDx=0;entryDy=0;entryPerimeter=0;endArrow=none;endFill=0;" edge="1" parent="1" source="CEy5MRwPspwMGe2h-Den-227" target="CEy5MRwPspwMGe2h-Den-1">
          <mxGeometry relative="1" as="geometry">
            <Array as="points">
              <mxPoint x="365" y="370" />
            </Array>
          </mxGeometry>
        </mxCell>
        <mxCell id="CEy5MRwPspwMGe2h-Den-227" value="昵称" style="ellipse;whiteSpace=wrap;html=1;align=center;" parent="1" vertex="1">
          <mxGeometry x="690" y="354" width="100" height="40" as="geometry" />
        </mxCell>
        <mxCell id="CEy5MRwPspwMGe2h-Den-241" style="edgeStyle=orthogonalEdgeStyle;rounded=0;orthogonalLoop=1;jettySize=auto;html=1;exitX=0.5;exitY=1;exitDx=0;exitDy=0;" parent="1" source="CEy5MRwPspwMGe2h-Den-117" target="CEy5MRwPspwMGe2h-Den-117" edge="1">
          <mxGeometry relative="1" as="geometry" />
        </mxCell>
        <mxCell id="CEy5MRwPspwMGe2h-Den-257" style="edgeStyle=orthogonalEdgeStyle;rounded=0;orthogonalLoop=1;jettySize=auto;html=1;entryX=1;entryY=0;entryDx=0;entryDy=0;" parent="1" source="CEy5MRwPspwMGe2h-Den-250" target="CEy5MRwPspwMGe2h-Den-1" edge="1">
          <mxGeometry relative="1" as="geometry">
            <Array as="points">
              <mxPoint x="1040" y="210" />
              <mxPoint x="380" y="210" />
            </Array>
          </mxGeometry>
        </mxCell>
        <mxCell id="CEy5MRwPspwMGe2h-Den-259" style="edgeStyle=orthogonalEdgeStyle;rounded=0;orthogonalLoop=1;jettySize=auto;html=1;entryX=1;entryY=0.5;entryDx=0;entryDy=0;endArrow=none;endFill=0;" parent="1" source="CEy5MRwPspwMGe2h-Den-250" target="CEy5MRwPspwMGe2h-Den-40" edge="1">
          <mxGeometry relative="1" as="geometry" />
        </mxCell>
        <mxCell id="CEy5MRwPspwMGe2h-Den-250" value="发送评论" style="shape=rhombus;perimeter=rhombusPerimeter;whiteSpace=wrap;html=1;align=center;" parent="1" vertex="1">
          <mxGeometry x="980" y="-60.67" width="120" height="60" as="geometry" />
        </mxCell>
        <mxCell id="CEy5MRwPspwMGe2h-Den-256" style="edgeStyle=orthogonalEdgeStyle;rounded=0;orthogonalLoop=1;jettySize=auto;html=1;entryX=1;entryY=0;entryDx=0;entryDy=0;" parent="1" target="CEy5MRwPspwMGe2h-Den-1" edge="1">
          <mxGeometry relative="1" as="geometry">
            <mxPoint x="970" y="80" as="sourcePoint" />
            <Array as="points">
              <mxPoint x="970" y="210" />
              <mxPoint x="380" y="210" />
            </Array>
          </mxGeometry>
        </mxCell>
        <mxCell id="CEy5MRwPspwMGe2h-Den-258" style="edgeStyle=orthogonalEdgeStyle;rounded=0;orthogonalLoop=1;jettySize=auto;html=1;entryX=1;entryY=0.75;entryDx=0;entryDy=0;endArrow=none;endFill=0;" parent="1" source="CEy5MRwPspwMGe2h-Den-251" target="CEy5MRwPspwMGe2h-Den-41" edge="1">
          <mxGeometry relative="1" as="geometry" />
        </mxCell>
        <mxCell id="CEy5MRwPspwMGe2h-Den-251" value="发送点赞" style="shape=rhombus;perimeter=rhombusPerimeter;whiteSpace=wrap;html=1;align=center;" parent="1" vertex="1">
          <mxGeometry x="907" y="19.33" width="120" height="60" as="geometry" />
        </mxCell>
        <mxCell id="CEy5MRwPspwMGe2h-Den-254" style="edgeStyle=orthogonalEdgeStyle;rounded=0;orthogonalLoop=1;jettySize=auto;html=1;exitX=0.5;exitY=0;exitDx=0;exitDy=0;endArrow=none;endFill=0;" parent="1" source="CEy5MRwPspwMGe2h-Den-252" edge="1">
          <mxGeometry relative="1" as="geometry">
            <mxPoint x="730" y="130" as="targetPoint" />
          </mxGeometry>
        </mxCell>
        <mxCell id="CEy5MRwPspwMGe2h-Den-255" style="edgeStyle=orthogonalEdgeStyle;rounded=0;orthogonalLoop=1;jettySize=auto;html=1;entryX=1;entryY=0;entryDx=0;entryDy=0;exitX=0.5;exitY=1;exitDx=0;exitDy=0;" parent="1" source="CEy5MRwPspwMGe2h-Den-252" target="CEy5MRwPspwMGe2h-Den-1" edge="1">
          <mxGeometry relative="1" as="geometry">
            <Array as="points">
              <mxPoint x="730" y="210" />
              <mxPoint x="380" y="210" />
            </Array>
          </mxGeometry>
        </mxCell>
        <mxCell id="CEy5MRwPspwMGe2h-Den-252" value="进行转发" style="shape=rhombus;perimeter=rhombusPerimeter;whiteSpace=wrap;html=1;align=center;" parent="1" vertex="1">
          <mxGeometry x="670" y="140" width="120" height="60" as="geometry" />
        </mxCell>
        <mxCell id="CEy5MRwPspwMGe2h-Den-260" value="音乐" style="rounded=1;arcSize=10;whiteSpace=wrap;html=1;align=center;" parent="1" vertex="1">
          <mxGeometry x="240" y="600" width="105" height="40" as="geometry" />
        </mxCell>
        <mxCell id="CEy5MRwPspwMGe2h-Den-262" style="edgeStyle=orthogonalEdgeStyle;rounded=0;orthogonalLoop=1;jettySize=auto;html=1;endArrow=none;endFill=0;" parent="1" source="CEy5MRwPspwMGe2h-Den-261" edge="1">
          <mxGeometry relative="1" as="geometry">
            <mxPoint x="240" y="620" as="targetPoint" />
            <Array as="points">
              <mxPoint x="240" y="620" />
            </Array>
          </mxGeometry>
        </mxCell>
        <mxCell id="CEy5MRwPspwMGe2h-Den-263" style="edgeStyle=orthogonalEdgeStyle;rounded=0;orthogonalLoop=1;jettySize=auto;html=1;exitX=0;exitY=0.25;exitDx=0;exitDy=0;entryX=1;entryY=0.5;entryDx=0;entryDy=0;endArrow=none;endFill=0;" parent="1" source="CEy5MRwPspwMGe2h-Den-261" target="CEy5MRwPspwMGe2h-Den-22" edge="1">
          <mxGeometry relative="1" as="geometry">
            <Array as="points">
              <mxPoint x="180" y="610" />
              <mxPoint x="180" y="580" />
            </Array>
          </mxGeometry>
        </mxCell>
        <mxCell id="CEy5MRwPspwMGe2h-Den-261" value="ISA" style="triangle;whiteSpace=wrap;html=1;" parent="1" vertex="1">
          <mxGeometry x="190" y="600" width="40" height="40" as="geometry" />
        </mxCell>
        <mxCell id="CEy5MRwPspwMGe2h-Den-267" style="edgeStyle=orthogonalEdgeStyle;rounded=0;orthogonalLoop=1;jettySize=auto;html=1;endArrow=none;endFill=0;exitX=1;exitY=0.5;exitDx=0;exitDy=0;entryX=0.25;entryY=1;entryDx=0;entryDy=0;" parent="1" source="CEy5MRwPspwMGe2h-Den-266" target="CEy5MRwPspwMGe2h-Den-260" edge="1">
          <mxGeometry relative="1" as="geometry">
            <Array as="points">
              <mxPoint x="266" y="720" />
            </Array>
            <mxPoint x="365.00000000000045" y="560" as="sourcePoint" />
            <mxPoint x="250" y="640" as="targetPoint" />
          </mxGeometry>
        </mxCell>
        <mxCell id="CEy5MRwPspwMGe2h-Den-266" value="音乐ID" style="ellipse;whiteSpace=wrap;html=1;align=center;fontStyle=4;" parent="1" vertex="1">
          <mxGeometry x="140" y="700" width="100" height="40" as="geometry" />
        </mxCell>
        <mxCell id="Fw19qUdo11Y4iBwB-dgM-1" style="edgeStyle=orthogonalEdgeStyle;rounded=0;orthogonalLoop=1;jettySize=auto;html=1;entryX=0.847;entryY=0.992;entryDx=0;entryDy=0;entryPerimeter=0;endArrow=none;endFill=0;" edge="1" parent="1">
          <mxGeometry relative="1" as="geometry">
            <mxPoint x="690" y="419.9999999999998" as="sourcePoint" />
            <mxPoint x="364.70000000000005" y="289.67999999999984" as="targetPoint" />
            <Array as="points">
              <mxPoint x="670" y="420" />
              <mxPoint x="670" y="370" />
              <mxPoint x="365" y="370" />
            </Array>
          </mxGeometry>
        </mxCell>
        <mxCell id="AdRNGlTQYAIWG7Ik0YOi-2" value="登录方式" style="ellipse;shape=doubleEllipse;margin=3;whiteSpace=wrap;html=1;align=center;" parent="1" vertex="1">
          <mxGeometry x="690" y="400" width="100" height="40" as="geometry" />
        </mxCell>
        <mxCell id="vWirLExYZp-_1QMK95Xu-2" style="edgeStyle=orthogonalEdgeStyle;rounded=0;orthogonalLoop=1;jettySize=auto;html=1;exitX=0.5;exitY=1;exitDx=0;exitDy=0;entryX=0.5;entryY=0;entryDx=0;entryDy=0;endArrow=none;endFill=0;" parent="1" source="vWirLExYZp-_1QMK95Xu-1" target="CEy5MRwPspwMGe2h-Den-27" edge="1">
          <mxGeometry relative="1" as="geometry">
            <Array as="points">
              <mxPoint x="435" y="750" />
              <mxPoint x="485" y="750" />
            </Array>
            <mxPoint x="485" y="666" as="targetPoint" />
          </mxGeometry>
        </mxCell>
        <mxCell id="vWirLExYZp-_1QMK95Xu-1" value="专辑名称" style="ellipse;whiteSpace=wrap;html=1;align=center;" parent="1" vertex="1">
          <mxGeometry x="385" y="696" width="100" height="40" as="geometry" />
        </mxCell>
        <mxCell id="UvHq0rs_nV5sJWZx447b-7" style="edgeStyle=orthogonalEdgeStyle;rounded=0;orthogonalLoop=1;jettySize=auto;html=1;endArrow=none;endFill=0;" parent="1" edge="1">
          <mxGeometry relative="1" as="geometry">
            <mxPoint x="365" y="290" as="targetPoint" />
            <Array as="points">
              <mxPoint x="670" y="467" />
              <mxPoint x="670" y="370" />
              <mxPoint x="365" y="370" />
            </Array>
            <mxPoint x="690" y="467" as="sourcePoint" />
          </mxGeometry>
        </mxCell>
        <mxCell id="UvHq0rs_nV5sJWZx447b-6" value="会员等级" style="ellipse;whiteSpace=wrap;html=1;align=center;" parent="1" vertex="1">
          <mxGeometry x="690" y="447" width="100" height="40" as="geometry" />
        </mxCell>
        <mxCell id="Fw19qUdo11Y4iBwB-dgM-4" style="edgeStyle=orthogonalEdgeStyle;rounded=0;orthogonalLoop=1;jettySize=auto;html=1;entryX=0.42;entryY=-0.025;entryDx=0;entryDy=0;entryPerimeter=0;endArrow=none;endFill=0;" edge="1" parent="1" source="UvHq0rs_nV5sJWZx447b-9" target="CEy5MRwPspwMGe2h-Den-28">
          <mxGeometry relative="1" as="geometry" />
        </mxCell>
        <mxCell id="Fw19qUdo11Y4iBwB-dgM-5" style="edgeStyle=orthogonalEdgeStyle;rounded=0;orthogonalLoop=1;jettySize=auto;html=1;entryX=0.5;entryY=1;entryDx=0;entryDy=0;endArrow=none;endFill=0;" edge="1" parent="1" source="UvHq0rs_nV5sJWZx447b-9" target="CEy5MRwPspwMGe2h-Den-1">
          <mxGeometry relative="1" as="geometry">
            <Array as="points">
              <mxPoint x="640" y="410" />
              <mxPoint x="330" y="410" />
            </Array>
          </mxGeometry>
        </mxCell>
        <mxCell id="UvHq0rs_nV5sJWZx447b-9" value="" style="triangle;whiteSpace=wrap;html=1;rotation=-90;" parent="1" vertex="1">
          <mxGeometry x="620" y="474" width="40" height="40" as="geometry" />
        </mxCell>
        <mxCell id="Fw19qUdo11Y4iBwB-dgM-6" value="ISA" style="text;html=1;strokeColor=none;fillColor=none;align=center;verticalAlign=middle;whiteSpace=wrap;rounded=0;" vertex="1" parent="1">
          <mxGeometry x="610" y="487" width="60" height="30" as="geometry" />
        </mxCell>
      </root>
    </mxGraphModel>
  </diagram>
</mxfile>
